# xmcd
#
# Track frame offsets:
# 150
# 18405
# 40535
# 61210
# 77160
# 96535
# 112515
# 129090
# 146405
# 170705
# 188790
# 209180
# 228820
#
# Disc length: 3266 seconds
#
#
# Revision: 3
# Processed by: cddbd v1.5.1PL0 Copyright (c) Steve Scherf et al.
# Submitted via: FreeRIP 2.70 
#
DISCID=a60cc00d
DTITLE=Kaija K‰rkinen and Ile Kallio - Lupaus
DYEAR=1996
DGENRE=Suomi Pop
TTITLE0=Tulikeh‰
TTITLE1=Tahdon uskoa
TTITLE2=T‰ysikuu
TTITLE3=Niin ‰kki‰ talvi
TTITLE4=V‰‰r‰t kuninkaat
TTITLE5=Vie minut tanssiin
TTITLE6=Lupaus
TTITLE7=Enkelin kosketus
TTITLE8=Tuuli puhaltaa
TTITLE9=T‰n‰‰n tahdon laulaa
TTITLE10=Malja El‰m‰lle
TTITLE11=Laulu syntyi uudestaan
TTITLE12=Maailma saa odottaa
EXTD=
EXTT0=
EXTT1=
EXTT2=
EXTT3=
EXTT4=
EXTT5=
EXTT6=
EXTT7=
EXTT8=
EXTT9=
EXTT10=
EXTT11=
EXTT12=
PLAYORDER=
